{
	"asset":{
		"generator":"Khronos glTF Blender I/O v5.1.18",
		"version":"2.0"
	},
	"scene":0,
	"scenes":[
		{
			"name":"Scene",
			"nodes":[
				1
			]
		}
	],
	"nodes":[
		{
			"mesh":0,
			"name":"shoes_r",
			"rotation":[
				0,
				0.9999383687973022,
				0,
				0.011110426858067513
			],
			"scale":[
				1,
				1,
				0.7999998927116394
			],
			"translation":[
				0,
				0.09999999403953552,
				0
			]
		},
		{
			"children":[
				0
			],
			"name":"slip_ons_grp",
			"scale":[
				100,
				100,
				100
			]
		}
	],
	"materials":[
		{
			"doubleSided":true,
			"name":"shoe.001",
			"normalTexture":{
				"index":0
			},
			"pbrMetallicRoughness":{
				"baseColorTexture":{
					"index":1
				},
				"metallicRoughnessTexture":{
					"index":2
				}
			}
		}
	],
	"meshes":[
		{
			"name":"Cube.002",
			"primitives":[
				{
					"attributes":{
						"POSITION":0,
						"NORMAL":1,
						"TEXCOORD_0":2
					},
					"indices":3,
					"material":0
				}
			]
		}
	],
	"textures":[
		{
			"sampler":0,
			"source":0
		},
		{
			"sampler":0,
			"source":1
		},
		{
			"sampler":0,
			"source":2
		}
	],
	"images":[
		{
			"mimeType":"image/png",
			"name":"shoe_norm",
			"uri":"shoe_norm.png"
		},
		{
			"mimeType":"image/png",
			"name":"shoe_bcolor",
			"uri":"shoe_bcolor.png"
		},
		{
			"mimeType":"image/png",
			"name":"shoe_metal-shoe_rough",
			"uri":"shoe_metal-shoe_rough.png"
		}
	],
	"accessors":[
		{
			"bufferView":0,
			"componentType":5126,
			"count":4418,
			"max":[
				0.06248977407813072,
				0.09040781855583191,
				0.17312590777873993
			],
			"min":[
				-0.07002062350511551,
				-0.08481130003929138,
				-0.17891241610050201
			],
			"type":"VEC3"
		},
		{
			"bufferView":1,
			"componentType":5126,
			"count":4418,
			"type":"VEC3"
		},
		{
			"bufferView":2,
			"componentType":5126,
			"count":4418,
			"type":"VEC2"
		},
		{
			"bufferView":3,
			"componentType":5123,
			"count":24360,
			"type":"SCALAR"
		}
	],
	"bufferViews":[
		{
			"buffer":0,
			"byteLength":53016,
			"byteOffset":0,
			"target":34962
		},
		{
			"buffer":0,
			"byteLength":53016,
			"byteOffset":53016,
			"target":34962
		},
		{
			"buffer":0,
			"byteLength":35344,
			"byteOffset":106032,
			"target":34962
		},
		{
			"buffer":0,
			"byteLength":48720,
			"byteOffset":141376,
			"target":34963
		}
	],
	"samplers":[
		{
			"magFilter":9729,
			"minFilter":9987
		}
	],
	"buffers":[
		{
			"byteLength":190096,
			"uri":"slip_ons.bin"
		}
	]
}
