<svg version="1.2" xmlns="http://www.w3.org/2000/svg" viewBox="0 0 2048 2048" width="2048" height="2048">
	<style>
		.s0 { fill: #010101 } 
		.s1 { fill: #fdfdfd } 
		.s2 { fill: #000000 } 
		.s3 { fill: #ffffff } 
	</style>
	<g id="Background">
		<path id="Path 0" class="s0" d="m0 1024v1024h2048v-2048h-2048z"/>
		<path id="Path 1" fill-rule="evenodd" class="s1" d="m205 218h1627.54l-0.16 120.25c-0.09 66.14-0.43 127.34-1.38 151.75h9.5l0.77 47.25c0.43 25.99 1.1 62.15 2.23 113.46l-2.25 0.65c-1.24 0.35-2.25 1.31-2.25 2.14 0 0.83-1.12 2.06-2.49 2.75-1.86 0.93-2.37 1.82-2 3.5 0.27 1.24 0.04 2.25-0.51 2.25-0.66 0-1 106.67-1 636h-81c-53 0-81.17-0.35-81.5-1-0.28-0.55-4.33-1-9-1-7.83 0-8.5 0.16-8.5 2 0 1.1-0.45 2.22-1 2.5-0.58 0.29-1.01 5.45-1.04 12.25-0.03 11.03 0.14 12.09 2.84 17.25 1.58 3.03 3.59 6.85 4.46 8.5 0.87 1.65 2.81 5.47 4.31 8.5 1.5 3.03 4.35 8.63 6.33 12.46 1.98 3.84 4.39 7.77 5.35 8.75 0.96 0.99 1.75 2.24 1.75 2.79 0 0.55 1.95 3.81 4.33 7.25 2.38 3.44 4.62 6.92 4.99 7.75 0.37 0.83 1.1 2.17 1.63 3 0.53 0.83 2.99 5.1 5.48 9.5 2.49 4.4 4.53 8.34 4.55 8.75 0.01 0.41-34.97 0.75-155.48 0.77l-0.75-8.01c-0.41-4.41-0.53-8.68-0.25-9.51 0.28-0.83 1.4-1.5 2.5-1.5 1.84 0 2.01-0.71 2.12-8.75 0.07-4.81 0.18-10.87 0.25-13.46 0.1-3.64-0.32-5.03-1.87-6.17-1.97-1.44-2-2.61-2-156.12l-3.92-5.5c-2.16-3.03-5.37-7.08-7.14-9-1.76-1.92-4.38-5.41-5.82-7.75-1.44-2.34-2.39-4.81-2.1-5.5 0.28-0.69-0.84-2.71-2.5-4.5-2.36-2.54-3.84-3.26-6.77-3.27-3.57-0.03-4.47-0.82-18.75-16.62-8.25-9.13-15.11-16.99-15.25-17.48-0.14-0.48-3.29-0.9-7-0.92-4.26-0.03-7.22 0.43-8.01 1.25-1 1.02-1.27 17.79-1.25 79.54 0 43.04-0.21 78.92-0.49 79.75-0.38 1.13-2.11 1.5-7 1.5-3.58 0-6.72 0.45-7 1-0.33 0.66-41 1-119 1-104.67 0-118.5 0.18-118.5 1.5 0 0.83 0.79 1.55 1.75 1.62 1.67 0.11 1.67 0.13 0 0.5-1.65 0.36-1.75 5.53-1.75 91.38 0 79.56 0.19 91.19 1.5 92.5 0.83 0.83 1.72 2.63 2 4 0.28 1.38 0.95 2.5 1.5 2.5 0.55 0 2.24 3.84 3.75 8.53 1.51 4.69 3.09 8.51 3.5 8.5 0.41-0.02 0.77 0.53 0.78 1.22 0.02 0.69 0.91 3.05 1.97 5.25 1.06 2.2 1.95 4.34 1.97 4.75 0.01 0.41 1.43 3.11 3.15 6 1.72 2.89 3.07 5.36 3 5.5-0.07 0.14 0.2 1.26 0.58 2.5 0.39 1.24 1.97 4.72 3.52 7.75 1.54 3.03 2.8 6.06 2.8 6.75-0.01 0.69 0.54 2.26 1.23 3.5 0.69 1.24 1.54 2.47 1.9 2.75 0.36 0.28 0.92 2.08 1.25 4 0.33 1.92 0.71 3.61 0.85 3.74 0.14 0.13 2.05 0.42 8.25 1.03l0.25 51.11c0.14 28.12-0.09 50.95-0.5 50.73-0.41-0.21-1.84-3.7-3.17-7.75-1.34-4.05-2.91-7.93-3.5-8.62-0.7-0.82-4.39-1.35-10.42-1.5-6.11-0.16-9.74-0.69-10.5-1.53-0.74-0.83-3.6-1.28-7.91-1.25-6.24 0.04-6.71 0.19-6.25 2.04 0.28 1.1 0.05 2-0.5 2-0.66 0-1 31.67-1 93 0 51.15-0.22 93.67-0.5 94.5-0.43 1.28-4.06 1.5-24.5 1.5-23.33 0-24-0.06-24-2 0-1.82-0.75-2.02-16.5-2.5l0.28-44c0.16-24.2 0.5-45.46 0.75-47.25 0.26-1.79 0.92-3.03 1.47-2.75 0.55 0.28 1 1.4 1 2.5 0 1.1 1.06 3.24 4.71 7.5l7.29-4.5 0.15-8.75c0.08-4.81 0.07-10.1-0.03-11.75-0.09-1.65-0.39-4.01-0.65-5.25-0.3-1.44-1.46-2.48-3.22-2.89-1.51-0.35-3.87-0.23-5.25 0.27-1.59 0.58-2.61 1.81-2.8 3.39-0.16 1.36-0.53 3.15-0.82 3.98-0.43 1.23-0.78 1.14-1.97-0.5-0.79-1.1-1.44-4.14-1.43-6.75 0.01-2.61-0.71-7.34-1.59-10.5-0.89-3.16-1.85-7.1-2.15-8.75-0.29-1.65-1.13-3.9-1.85-5-0.73-1.1-1.23-3.62-1.11-5.6 0.12-1.99-0.33-4.24-0.99-5-0.67-0.77-1.51-4.1-1.87-7.4-0.37-3.3-1.03-6.45-1.47-7-0.44-0.55-0.95-3.25-1.45-11l-6.5-0.26c-3.58-0.14-7.04 0.09-7.71 0.5-0.9 0.57-1.22 8.26-1.25 30.01-0.02 16.09-0.38 29.05-0.79 28.8-0.41-0.25-2.44-0.03-4.5 0.5-3.72 0.94-3.76 1-4.44 7.2-0.38 3.44-0.72 9.69-0.75 13.89-0.05 6.32 0.29 8.01 1.94 9.78 1.27 1.36 3.19 2.13 8.5 2.08v99h-212v-5c0-3.56-0.43-5.14-1.5-5.5-0.83-0.28-1.27-1.17-1-2 0.43-1.28-1.39-1.5-12.5-1.5-11.81 0-12.98 0.16-12.75 1.75 0.24 1.66-16.41 1.76-672.25 2.25zm1320 1218h186l1.25 2.53c0.71 1.43 2.12 2.54 3.25 2.54 1.1 0.01 3.35 1.57 8 6.88l10.25 0.03c9.43 0.02 10.29-0.14 10.75-1.98 0.49-1.96 1.33-2 88.5-2v135c0 89-0.34 135.17-1 135.5-0.55 0.28-1.67-0.17-2.5-1-1.28-1.28-7.2-1.5-40.75-1.5-21.59 0-48.8 0.34-60.47 0.75-21.03 0.74-21.23 0.77-22.5 3.15-0.93 1.74-1.28 8.31-1.28 23.75 0 11.74-0.22 21.33-0.5 21.32-0.28-0.02-4.1-4.58-8.5-10.14-4.4-5.56-11.77-14.66-16.37-20.22-4.6-5.56-10.11-12.02-16.13-18.61l-127.5 0.5-0.5 125.5-26.5-0.08 3.22-2.71c1.78-1.49 3.24-3.5 3.25-4.46 0.02-0.96 0.48-1.75 1.03-1.75 0.55 0 0.99-1.69 0.98-3.75-0.01-2.06 0.42-4.2 0.94-4.75 0.53-0.55 1.26-2.35 1.62-4 0.36-1.65 1.03-5.25 1.48-8 0.46-2.75 0.87-8.71 0.91-13.25 0.04-4.54-0.38-9.15-0.93-10.25-0.55-1.1-1.45-2.9-2-4-0.55-1.1-0.74-3.69-0.41-5.75 0.5-3.23 0.17-4.16-2.39-6.75-1.64-1.65-3.67-4.35-4.53-6-0.85-1.65-1.3-3.9-1.01-5 0.32-1.2-0.21-2.73-1.31-3.83-1.35-1.33-2.67-1.65-4.85-1.19-2.65 0.56-3.66-0.01-8.75-4.92-3.16-3.06-6.09-5.57-6.5-5.57-0.41-0.01-3.67-2.72-7.25-6.02-3.58-3.3-7.62-7.06-9-8.34-1.37-1.29-4.75-3.63-7.5-5.22-2.75-1.58-5.67-2.98-6.5-3.1-0.83-0.12-1.95-0.9-2.5-1.73-0.55-0.83-2.24-1.52-3.75-1.54-1.51-0.02-2.75-0.49-2.75-1.04 0-0.62-5-1-13-1-12.57 0-13.21 0.1-19.25 3.14-3.44 1.72-8.78 5.21-11.87 7.75-3.08 2.53-6.55 5.96-7.7 7.61-1.14 1.65-3.45 4.46-5.13 6.25-1.68 1.79-2.6 3.47-2.05 3.75 0.62 0.31 0.48 1.35-0.37 2.75-0.76 1.24-1.72 4.05-2.13 6.25-0.42 2.2-0.93 9.96-1.13 17.25-0.3 10.66-0.66 13.35-1.87 13.75-1.06 0.35-1.49 1.9-1.47 5.25 0.01 3.09 0.63 5.4 1.75 6.61 1.12 1.21 1.76 3.63 1.83 7 0.05 2.82 0.56 8.74 1.11 13.14 0.55 4.4 1.71 9.58 2.57 11.5 0.86 1.92 2.72 5.41 6.71 12h-57c-37 0-57.18-0.35-57.5-1-0.28-0.55-0.05-1.22 0.5-1.5 0.64-0.32 1-12.33 1-33 0-20.67-0.36-32.68-1-33-0.55-0.28-1-1.17-1-2q0-1.5 2-1c1.38 0.35 2.35-0.19 3.13-1.75 0.68-1.37 0.98-5.83 0.75-11.39-0.27-6.56-0.84-9.67-1.99-11-0.89-1.02-1.91-3.66-2.27-5.86-0.36-2.2-1.21-4.64-1.89-5.41-0.68-0.78-1.79-3.03-2.46-5-0.94-2.73-1.24-22.28-1.25-81.34-0.01-49.54 0.34-78.66 0.98-80.25 0.87-2.18 1.32-2.37 3.5-1.5 1.38 0.55 3.06 1.01 3.75 1.03 0.69 0.01 1.81-1.11 2.5-2.5 0.69-1.39 1.25-5.45 1.25-9.03 0-4-0.58-7.46-1.5-9-0.96-1.6-2.4-2.5-6.5-2.5v-10c0-6.41 0.41-10.27 1.15-10.75 0.83-0.54 1.07-9.54 0.88-32.75-0.15-17.6-0.22-34.59-0.03-43.5l107.25-0.01c99.7 0 107.43 0.12 109.75 1.71q2.5 1.72 10.5 2.15c4.86 0.26 8.88-0.02 10.25-0.71 1.88-0.95 2.25-1.96 2.25-6.14z"/>
		<path id="Shape 5" fill-rule="evenodd" class="s2" d="m1836 1586v164h-124v-164z"/>
		<path id="Shape 2" fill-rule="evenodd" class="s1" d="m1437 1483v213h-272v-213z"/>
		<path id="Shape 3" fill-rule="evenodd" class="s1" d="m1554 1364v207h-286v-207z"/>
		<path id="Shape 4" fill-rule="evenodd" class="s3" d="m1837 1367v131h-120v-131z"/>
		<path id="Shape 1" fill-rule="evenodd" class="s3" d="m1719 1187v307h-190v-307z"/>
	</g>
</svg>