<svg version="1.2" xmlns="http://www.w3.org/2000/svg" viewBox="0 0 1376 768" width="1376" height="768">
	<style>
		.s0 { fill: #010101 } 
		.s1 { fill: #fcfcfc } 
	</style>
	<g id="Background">
		<path id="Path 0" class="s0" d="m0 384v384h1376v-768h-1376z"/>
		<path id="Path 1" class="s1" d="m1021 75.5v24.5h-35l-1 46h-10l-1-57h-102v91h102v-9h12v55c-95.71-0.97-123.57-1.31-123.66-1.38-0.09-0.06-0.64-21.05-1.24-46.62-0.59-25.57-1.3-56.06-1.58-67.75l-0.52-21.25h-755v561h162v-17h77v17h256v-17h76l1 17h183.5c1.16-93.39 1.73-159.88 2.01-208 0.29-48.13 0.74-103.36 1-122.75l0.49-35.25h40v45h-8c-0.94 16.66-0.83 88.89-0.36 171.25l0.86 149.75h90.5v-22h160v22c11.76 0 12.02-0.11 12.47-2.75 0.27-1.51 1.19-7.02 2.06-12.25 1.43-8.64 1.44-20.9 0.06-135.5-0.84-69.3-1.76-143.66-2.06-165.25l-0.53-39.25h-12v46l-181.5 0.01c-1.2-30.62-1.88-43.45-2.28-48.27l-0.72-8.76 214.5 0.02c0 10.94-0.03 11-3 11h-3v355h102c-0.93-4.26-1.56-7.08-2-9-0.44-1.92-1.07-4.74-1.4-6.25-0.57-2.6-0.84-2.72-5.1-2.25-2.47 0.27-4.5 0.27-4.5 0 0-0.27 2.92-4.1 6.5-8.5l6.5-8h-56v-46h56v-13l-14-4 14-17h-56v-46l54.5-0.5-12.5-6.5 13-16h-55v-46l54.5-0.5-12.5-6.5 13-16h-55v-46l54.5-0.17-12.5-5.83 14-16h-55c-0.75-16.66-1.2-27.01-1.48-33.75l-0.52-12.25h57v-12h-17c-0.76-54.64-1.26-86.47-1.6-106l-0.63-35.5 20.23-1.5v-39h-115v30h-11v-19l-35-1v-49h-91z"/>
		<path id="Path 2" class="s0" d="m1031.33 73.75c0.37 7.01 0.66 14.66 0.67 17v4.25h69v-34h-70.33zm-717.91 56.5c0.36 3.44 0.91 8.5 1.22 11.25l0.58 5 3.78-5.5h62c2.33 3.88 3.45 5 4 5 0.55 0 1.74-1.24 2.64-2.75 1.32-2.22 1.51-4.33 1-11l-0.64-8.25h-75.22zm216.6-5.5c0.01 0.41 0.68 5.25 1.48 10.75 0.81 5.5 1.59 10.12 1.73 10.28 0.15 0.15 1.05-0.87 2.02-2.25l1.75-2.53h62c2.32 3.88 3.45 5 4 5 0.55 0 1.73-1.24 2.63-2.75 1.32-2.22 1.51-4.33 1-11l-0.63-8.25c-58.9 0-75.99 0.34-75.98 0.75zm310.73 9c-0.97 2.89-1.87 5.25-2 5.26-0.14 0-2.84-0.45-6-1l-5.75-1.01-14 14c5.67 13.56 7.58 17.82 7.91 18.21 0.32 0.39 5.31-0.4 11.09-1.76 5.77-1.35 10.6-2.57 10.73-2.7 0.14-0.14 0.14-8.35 0-18.25l-0.23-18zm306.25 64.75v30.5h11v-61h-11zm-917.68-21.73l-0.82 4.27-56.5-0.04v412h620v-412h-534c-0.03-3.49-0.44-5.18-0.94-6-0.71-1.18-1.24-0.7-2.48 2.25l-1.58 3.75h-18l-4.87-8.5zm761.69 29.73c0 14.03 0.11 25.51 0.25 25.52 0.13 0.01 1.6-0.44 3.25-1l3-1.02c1.18-20.5 1.92-26 2.5-26 0.55 0 1-0.9 1-2 0-1.1-0.45-2-1-2-0.55 0-1.23-3.82-1.5-8.5l-0.5-8.5c-5.04-1.57-6.62-2.02-6.75-2.02-0.14 0.01-0.25 11.5-0.25 25.52zm42 0v25.5c5.03-0.89 7.28-1.34 8.25-1.57 1.6-0.39 1.75-2.4 1.77-24.18l0.02-23.75c-5.07-1.18-7.33-1.52-8.29-1.51-1.62 0.01-1.75 1.9-1.75 25.51zm42.43-14.75c-0.52 5.91-0.82 17.16-0.68 25l0.25 14.25c10.46 0.88 13.72 0.84 14 0.48 0.27-0.35 0.67-9.27 0.88-19.81 0.2-10.54 0.09-21.76-0.25-24.92l-0.63-5.75h-12.64zm50.57 13.75v24.5c5.91 0 6.01-0.17 6.62-5.75 0.35-3.16 0.24-13.94-0.25-23.95-0.82-16.98-1.01-18.24-2.87-18.74-1.1-0.29-2.34-0.54-2.75-0.54-0.42-0.01-0.75 11.01-0.75 24.48zm-1016.26 167.63c-0.41 15.06-0.75 31.76-0.75 37.12l0.01 9.75c5.81 0.69 9.63 1.14 12.25 1.45l4.75 0.55c0-72.55-0.12-75-1.75-74.99-0.97 0-4.45-0.28-7.75-0.62l-6-0.63zm728 0c-0.42 15.06-0.76 31.54-0.75 36.62v9.25c5.81 0.7 9.63 1.15 12.25 1.45l4.75 0.55c0-71.57-0.12-74-1.75-73.99-0.97 0-4.45-0.28-7.75-0.62l-6-0.62zm80.25 34.36v42.5c4.26 0.01 9.21 0.35 13.76 0.76l8.25 0.74-0.01-86.5h-22zm69.37-28.75c0.32 1.52 1.04 5.79 1.6 9.5l1.03 6.75h133v-19h-136.2zm-0.72 88c-0.36 18.57-0.66 39.04-0.66 45.5v11.75h160c0.96-25.18 0.96-45.66 0.62-61.75l-0.62-29.25h-158.68zm-68 54.5c-0.36 19.39-0.66 41.44-0.66 49 0 12.26 0.19 13.8 1.75 14.21 0.96 0.25 5.12 1.39 9.25 2.52l7.5 2.06c3.46-4.38 3.58-7.89 3.55-53.04l-0.03-48.5c-12.03-1.16-16.69-1.5-18.11-1.5h-2.59zm-86.92-27.02l-5.54 6.27 6.57 16 14.73 1.8c9.3-10.57 9.48-10.99 8.86-15.3-0.35-2.47-0.92-5.31-1.25-6.31-0.34-1.01-3.49-3.04-7.11-4.6-3.58-1.53-7.45-3.09-8.61-3.46-1.71-0.54-3.15 0.51-7.65 5.6zm155.63 67.52c0.32 1.52 1.04 5.79 1.6 9.5l1.03 6.75h133v-19h-136.2zm-148.46 48.02l-6.42 7.84-17.5 1.39c0.13 13.43 0.82 18.37 1.93 21.5l1.78 5c19.21-0.49 24.88-0.71 24.98-0.81 0.1-0.1 0.76-9.59 1.47-21.08 0.7-11.49 1.03-21.07 0.73-21.29-0.3-0.22-3.44 3.13-6.97 7.45zm-718.93-5.02c-0.01 0.42 1.79 4.92 4 10l4.01 9.25-10 15 16.5 5.2c8.85-9.06 11.27-11.92 11.09-12.2-0.18-0.27-3.54-2.41-7.46-4.75-6.93-4.13-7.26-4.51-11.92-13.75-2.63-5.22-5.11-9.5-5.5-9.5-0.39 0-0.72 0.34-0.72 0.75z"/>
		<path id="Shape 1" fill-rule="evenodd" class="s1" d="m805 159v452h-648v-452z"/>
		<path id="Path 3" class="s1" d="m184 387v195h596v-390h-522v11h511v368h-574v-368h35v-11h-46zm654.67 112.5c-0.27 1.1-0.82 3.8-1.21 6-0.65 3.66-0.55 3.93 1.16 3.18 1.04-0.45 3.17-1.13 4.75-1.5 1.58-0.37 3.03-0.91 3.21-1.18 0.19-0.27-1.4-2.3-3.54-4.5-3.48-3.59-3.93-3.79-4.37-2z"/>
	</g>
</svg>