<?xml version="1.0" encoding="UTF-8"?>
<svg id="Layer_1" xmlns="http://www.w3.org/2000/svg" version="1.1" viewBox="0 0 4372 3841">
  <!-- Generator: Adobe Illustrator 30.2.1, SVG Export Plug-In . SVG Version: 2.1.1 Build 1)  -->
  <defs>
    <style>
      .st0 {
        fill: gray;
      }

      .st1 {
        fill-rule: evenodd;
      }
    </style>
  </defs>
  <path class="st1" d="M3352.5,406.1c2.7-.1,3.1.2,3.7,3.6.4,2.1.8,6.2.8,9,0,4.4.3,5.3,1.7,5.3,1.6,0,2.4,4.2,6.8,34.6,2.8,19.1,5.4,34.8,6,35,.6.1,3,.5,5.5.9,2.5.3,5.1.9,5.8,1.3s2.6,6.8,4.3,14.2c1.6,7.4,3.1,13.6,3.2,13.7.1.1,67.9-2.7,150.7-6.2s153.8-6.7,165-7.5l9.7-15.8c5.3-8.6,10.1-16.3,10.7-16.9.8-.9,17.6-2.1,119.6-7.3l11.8,5.1c6.4,2.8,12,5.4,12.4,5.8.5.3,4,60.2,7.8,133.1,3.9,72.9,7.2,132.6,7.3,132.8.1.1,12.4-.2,27.2-.8,14.8-.5,28.2-1,29.8-1,2.5,0,2.9-.6,6.5-12.5l14.3-.6c7.9-.4,20.4-.7,40.9-.9l-.5-12.8c-.3-7-1-26.2-1.5-42.7-.6-16.5-.9-30-.8-30,.2-.1,4.8-4.2,20.3-18.4l104-4.2,5.5,5.6,4,83c2.2,45.6,4,83.3,4,83.7,0,.5,3,1.7,6.8,2.8,3.7,1.1,6.8,1.9,6.9,1.7.2-.1-1.3-34.4-3.2-76.2-1.9-41.8-3.3-76.1-3.2-76.3.1-.2,47.7-2.5,105.7-5.2s108.8-5,120-5.5v3204.5h-9.5c-9.1,0-9.5-.1-9.9-2.3-.2-1.2-24.8-142.1-54.7-313.2-29.8-171.1-54.6-311.2-55-311.5s-3.1-75.9-5.9-168c-2.9-92.1-5.4-167.7-5.7-168-.2-.3-14.7.1-32.1.7-17.4.7-31.9,1-32.2.7-.3-.3-6.2-169.2-13.2-375.2-7-206.1-12.6-374.8-12.5-374.9.1-.1,16.2-.7,35.7-1.4,19.5-.6,35.8-1.4,36.1-1.8.4-.3-8.3-195.2-19.2-433.1-11-237.9-20-432.6-20.1-432.7-.2-.2-3.9.2-8.3.8-7.5,1.1-8.5,1.5-23.5,12.9l-11.7-1c-6.5-.6-12.1-.7-12.5-.3-.4.5-3.5,4.8-7,9.8-5.8,8.2-7,9.3-20.3,16l-67.5.5-.9-3.3c-.6-1.7-1.9-6.5-5.1-17.7l-8.2.5c-4.6.3-24.3,1.4-43.8,2.5s-35.6,1.9-35.7,1.7c-.2-.1-4.1-74.2-8.8-164.7s-8.5-164.8-8.5-165.3c0-.4-5.5-.4-24.5.6l-37.5,22.7-62.7,3c-34.6,1.6-63.4,3-64,3-.8,0-1.7-2.3-2.3-5.5-.6-3-1.4-8-3-16.5l-20.7.6c-11.5.3-86.8,4.1-314.3,16.4l-25,21-50.2,3c-27.7,1.6-58.5,3-86.8,3l-.9-3.3c-.6-1.7-1.5-5.2-2.1-7.7s-1.8-6.9-4-15h-28.5l-1.7,51.5-9.3,10.2-33.7,1.8.6,10.5c.4,5.8,2.9,63,5.6,127.2,2.8,64.3,4.8,117.1,4.6,117.5-.2.5-4.4,3.4-18.6,12.3l-43.2,2.5c-23.8,1.3-58.1,2.9-109.3,4.6l-21-7.1-87,4c-47.8,2.3-87.1,4.2-87.2,4.3-.1.1,3.2,73.5,7.3,163.2s7.6,163.1,7.7,163.2c.1.2,22.3-.4,49.2-1.2,26.9-.8,49.1-1.4,49.2-1.3.1.2,1.2,19.9,2.3,43.8,1.2,23.9,2.2,43.6,2.3,43.7s4.3,1.4,9.2,2.8,9.1,2.6,9.2,2.8c.2.1,3.4,42.9,14.2,190.2l1.6,165.3-10,.6c-5.5.4-147.8,7.2-316.2,15.1-168.5,8-311.7,14.5-330.3,14.5l-.5-9.8c-.3-5.3-4.1-85.8-8.5-178.7-4.4-93-7.9-169.1-7.7-169.2.1-.2,63.4-4.3,140.7-9.3s140.6-9.2,140.7-9.3c.1-.1-4.3-92.7-9.8-205.7s-10.1-205.6-10.2-205.7c-.1-.2-14.6.2-32.2.7-17.6.5-33.7,1-39.5,1l-3.7,11.9c-2.1,6.5-4,12.1-4.3,12.5-.3.3-42.8,1.9-94.5,3.6-51.7,1.6-94.1,2.9-94.3,2.7-.1-.1-3.8-43-8.2-95.2-4.4-52.3-8-95.1-8-95.3,0-.1-11.2-.2-25-.2s-25,.3-25,.7c0,.5-.9,12.3-2,26.3s-2.1,25.6-2.3,25.7c-.1.2-26.5,1.6-58.7,3.3-32.2,1.7-58.6,3.2-58.7,3.3-.1.1,2.9,69.7,6.7,154.7,3.9,85,7,154.8,7,155.2,0,.5,23.6.5,104.8-.7l.6,15.5c.4,8.5,1.8,52.8,3.1,98.5,1.4,45.7,2.4,83.1,2.3,83.2-.2.2-58.8,2.7-130.3,5.8-71.5,3-130.6,5.5-131.2,5.5-.7,0-3.9-3.7-12.8-16.2l-7.5.6c-4.1.4-41.2,2.7-82.5,5.1-41.2,2.5-75.1,4.4-75.2,4.2-.2-.1-2.1-7-8.3-30.2l-13.5-318c-7.5-174.9-13.7-318.1-13.8-318.2-.1-.1-13.4,1.3-29.4,3.2-16.1,1.9-29.5,3.5-29.8,3.5s-17.5,18.6-38.2,41.2c-20.7,22.7-37.7,41.4-37.7,41.5-.1.1-23.9,1.4-53.1,2.8s-53.1,2.7-53.2,2.8c-.2.1.4,36,1.2,79.7.9,43.7,1.4,79.6,1.3,79.7-.2.2-20.3,1.6-44.8,3.3-24.5,1.7-44.6,3.2-44.7,3.3-.1.1.7,16.4,3.8,72.2l-3.3,3.2c-3.2,3.1-3.8,3.3-14.8,4.3-6.3.5-15.1,1.4-19.5,1.9s-15.2,1.5-24,2.1-25.9,1.5-38,2c-12.1.6-31.2,1.7-42.5,2.6-11.3.8-27.2,1.7-35.5,1.9-8.2.3-20.4,1-27,1.5s-18.7,1.2-42,2l-10.5-10-2.2-60.5,3.7-15c3.1-12.8,3.6-16.1,3.1-22.3-.4-4.9-.2-7.3.5-7.5.8-.1.4-9.3-1.5-31.7-1.4-17.3-2.8-34.4-3.1-38-.3-3.6-1.2-19.1-2.1-34.5-1-19.2-1.9-28.2-2.7-28.7-.8-.5-6.6-62.3-18.4-198.5-9.6-110.6-17.2-203-17.3-221.3l11.3-.5c6.1-.3,55.8-2.3,110.2-4.5,54.5-2.2,99.1-3.9,99.3-3.7.1.1,2.9,21.3,12.2,94.2l5.5,131c3.1,72,5.7,131.1,5.8,131.2.1.1,44.5-1.8,98.7-4.2,54.2-2.5,99.1-4.5,99.8-4.5.6,0,19.9-19.3,84.2-86l-.6-14.3c-.4-7.8-.7-14.3-.8-14.4,0-.1-14.5.4-32.1,1.2s-32.7,1.5-33.5,1.5c-1.3,0-1.6,4.9-2.3,34.7-.5,19.2-.9,34.9-1,35-.1.2-38.9,1.6-86.2,3.3-47.3,1.6-86.8,3-87.7,3-1.2,0-2.8-2.1-7.8-13l-3.5-109.3c-1.9-60-3.4-109.3-3.2-109.4.1-.2,15.3-1.4,67.2-5.3l7-8,12.5-1c6.9-.5,139.8-6.4,295.5-13,155.7-6.7,283.1-12.2,283.2-12.3s-.9-26.3-2.2-58.2c-1.4-31.9-2.4-58.1-2.3-58.2.2-.1,7.1-.9,15.3-1.8,8.3-.8,15.3-1.5,15.8-1.5.4,0,.5-7.5.2-16.8-.3-9.2-.8-18.2-1.5-23.2h-75l-.5-19.3c-.3-10.5-1.5-57.5-2.5-104.2-1.1-46.8-1.9-85.1-1.8-85.2.2-.1,31.4-1.6,69.3-3.3,37.9-1.6,69.1-2.9,69.2-2.7.2.1,2.8,42.3,5.8,93.7,3.1,51.4,5.7,93.6,5.8,93.7.1.1,22.3-.9,49.2-2.3,26.9-1.4,49.1-2.6,49.2-2.7.1-.1.6-19.6,1.3-43.2.6-23.7,1.2-43.1,1.3-43.2.1-.2,67-3.4,148.7-7.3,81.7-3.8,148.6-6.9,148.7-6.7.2.1,1.2,14.1,2.3,31.2,1.2,17,2.2,31.1,2.3,31.2.1.1,28.6-1.4,126.2-6.8l7.5,2.2c4.1,1.3,7.8,2.5,8.2,2.8.5.3,2.8,43.8,5.3,96.6s4.5,96.3,4.5,96.7c0,.5,8,.5,35.5-.5l30.5,24.3,77.3-3.5c42.4-1.9,77.4-3.8,77.7-4.1s-3-68.1-7.3-150.7c-4.3-82.6-7.9-154.1-8.2-167.7h-3c-1.6,0-33.1,1.3-70,3-36.8,1.6-67.1,2.9-67.1,2.7-.1-.1-.4-7.3-.8-16-.4-10.2-.3-15.7.4-15.7.6,0,76.5-3.4,168.8-7.5,92.2-4.1,167.8-7.3,167.8-7.2.1.1.4,7.2,1.5,31.2l-9.3.7c-5.1.3-38.1,1.9-137.4,6.3l.3,2.5c.2,1.4,3.5,63.7,7.4,138.5,3.8,74.8,7.2,136.2,7.5,136.5.2.3.4-8.4.4-39l13.3-.5c7.2-.3,33.9-1.2,59.2-2s46.1-1.4,46.2-1.3c.1.2,1.4,23.7,2.8,52.3,1.4,28.6,2.7,52.1,2.8,52.2.1.2,7.4-.2,16.2-.7s16.8-1,17.8-1c1.5,0,1.7-1.1,1.7-18l11-7,24.8-1c13.6-.5,25.9-1,27.5-1,2.3,0,3.3,1,11.2,15.3l9.5-.7c5.2-.3,14.6-.9,32.1-2.1l-.5-7c-.4-3.9-3.6-54.4-13.6-217.5l24.7-49.5,15.9-.7c8.8-.5,19.7-.8,24.4-.8,8.4-.1,8.5-.1,17.5-7.9l21.8-.1c16.7,0,21.7-.3,21.7-1.3,0-.6-1.8-13.4-4-28.2-2.2-14.9-4.1-27.1-4.2-27.3-.2-.1-38.5,2.2-85.3,5.2-46.7,3.1-85.1,5.4-85.3,5.3-.1-.1-.7-6.3-1.2-13.7-.6-7.4-.8-13.7-.4-14,.3-.3,43-3.3,94.7-6.6,51.8-3.4,95.5-6.2,97.2-6.3h0ZM3896.3,383l.3,14.7c.2,8.2.1,15-.2,15.3s-46.8,2.4-103.2,4.7c-56.5,2.3-103.4,4.3-104.2,4.3-1.2,0-1.6-2.6-2.3-14.7-.4-8.2-.4-15-.1-15.3.3-.3,45-2.4,99.2-4.6,54.3-2.3,101.3-4.2,110.5-4.4ZM1810,419.1c11.3-.1,11.5-.1,17,5.4l5,141.5c2.7,77.8,4.9,141.6,4.7,141.7-.1.2-102.8,5.9-456.2,25.4l-8.9-1.8c-4.8-1-9.2-2-9.7-2.3-.4-.3-1.3-4.8-1.9-10s-1.2-9.6-1.3-9.7c-.1-.1-31,1.1-68.7,2.7-37.7,1.7-68.6,2.9-68.7,2.7-.2-.1-3-53.3-6.3-118.2s-5.9-118.1-5.7-118.2c.1-.2,30.6-1.8,67.7-3.8,37.1-1.9,68.1-3.5,68.8-3.5.9,0,1.1-2.8.7-22.2l15-8,218.5-10.8c120.2-5.9,223.7-10.8,230-10.9h0ZM1961,438l.5,7.2c.3,4,2.6,38.5,5,76.5,2.5,38.1,4.3,69.6,4.1,70-.2.5-4.5,3.3-18.8,11.8l20.2,2v9c0,4.9-.3,17.5-1.5,46.8l-24.5-.7c-13.5-.4-24.6-.8-24.7-.9-.2-.1-.9-10.3-1.8-22.7-.8-12.4-1.5-23.1-1.5-23.8,0-.6,2.6-2.8,5.8-4.8,3.1-2,5.9-3.8,6.2-4.1.3-.2-1.9-2.5-10.1-9.8l-6.9-147,2-3.3c1.3-2,2.8-3.2,4.3-3.3,1.2,0,9.4-.7,18.2-1.3,8.8-.7,17.7-1.4,23.5-1.6h0ZM1164,457.1c3.6,0,6,.8,20,8.9l.5,15.2c.3,8.4,2.1,66.8,4,129.8s3.4,114.6,3.2,114.7c-.1.1-17.7.7-78.2,2.5l-18.5-9.2-.5-8.8c-.3-4.8-3-56.4-11.6-220.7l2.6-13.5c1.4-7.4,2.6-13.6,2.8-13.8.1-.1,16.2-1.3,35.7-2.6,19.5-1.3,37.5-2.4,40-2.5ZM2004.3,673.1c4.5-.1,4.7,0,4.7,2.6,0,1.6.5,12.5,1,24.3.6,11.8.9,21.6.8,21.7-.2.1-13.8.9-30.3,1.7-16.5.9-30.1,1.5-30.2,1.3,0-.1-.6-11-1.2-24.2s-1-24.1-.9-24.2c.2-.2,11.8-.9,25.8-1.6,14-.8,27.6-1.5,30.3-1.6h0ZM981.8,693.1c5.7-.1,6.2.1,6.7,2.1.3,1.3,1.3,6.3,2.2,11.1,1,4.8,1.6,9,1.3,9.3-.3.2-2-1-7.2-6.1l.7,32c.4,17.6,7.2,174.6,15.1,349,8,174.3,14.8,317.4,15.2,318,.4.5.3.7-.3.3-.5-.4-66,2.2-145.5,5.7s-149.9,6.9-156.5,7.5c-6.6.6-14.4,1.3-22.5,2l3,7-8.2-3.1c-4.6-1.7-9.9-3.7-15.3-5.6l-.8-9.9c-.4-5.4-7.5-162.9-30.8-689.9l2.8-7.4c1.5-4,3.3-7.5,3.8-7.8.6-.2,75-3.4,165.5-7.2s167.3-6.9,170.8-7ZM2147,1794.2c5.8,0,13.5.3,17.1.7,6,.5,7.1,1,15.9,9.1l3,117.2c1.7,64.5,2.7,117.6,2.3,118-.5.4-4.6,2.8-9.3,5.3-4.7,2.6-8.8,5-9.2,5.3-.4.4-1.2,3.2-1.8,6.2s-1.2,5.6-1.3,5.7c-.1.2-29.4,1.2-65.2,2.3-35.7,1.1-66.2,2-70.5,2l1.5,32.8-6,.5c-3.3.4-9.5.9-13.7,1.2-4.3.3-7.8.4-7.8.2,0-.1-1.1-6.7-2.5-14.7s-2.6-14.6-2.8-14.7c-.1-.1-47.2,1.6-104.7,3.7-57.5,2.2-105.1,4-105.7,4-.7,0-7.8-7.9-30.3-35l9-11-4-66.8c-2.2-36.7-3.9-66.8-3.7-67,.1-.1,6.1-1.4,13.2-2.7,7.2-1.4,13.1-2.6,13.2-2.8.1-.1-.4-17.8-1.2-39.2-.8-21.5-1.4-39.1-1.3-39.2.2-.2,80.2-5,177.8-10.7s182.2-10.4,188-10.4h0Z"/>
  <path class="st0" d="M2883,187.5v37.5h38v-75h-38v37.5ZM2713,232v78h26v-156h-26v78ZM3023,199.5v38.5h33v-77h-33v38.5ZM3348,260.5v43.5h36v-87h-36v43.5ZM3428,260.5v33.5h27v-67h-27v33.5ZM3634,461.5v39.5h35v-79h-35v39.5ZM3519,469v41h36v-82h-36v41ZM3581,467.5v39.5h35v-79h-35v39.5ZM3967,510v75h92v-150h-92v75ZM2960,528.5v18.5h84v-37h-84v18.5ZM3141,573.5v40.5h37v-81h-37v40.5ZM2968,638v19h85v-38h-85v19ZM985.5,741.5c.4,17.6,7.2,174.6,15.1,349,8,174.3,14.8,317.5,15.2,318s.2.7-.3.3c-.6-.4-66,2.2-145.5,5.7s-149.9,6.9-156.5,7.5-14.3,1.3-17,1.6l-5,.6c1.7,5.1,4.2,7.3,9.5,10.7l7.5,4.8c254.2-14.7,328.1-19,328.3-19.1.1-.1-6.7-155.8-15.3-346.1l-15.6-346c-10.4-10.4-13.6-13.2-13.9-13-.3.3-2-.9-3.8-2.7l-3.4-3.3.7,32Z"/>
</svg>