<svg version="1.2" xmlns="http://www.w3.org/2000/svg" viewBox="0 0 4372 3840" width="4372" height="3840"><style>.a{opacity:1}</style><path fill-rule="evenodd" class="a" d="m1821 418l6 5 10 284-458 25-18-4-2-20-138 6-12-237 138-7-1-22 15-8 448-22zm460 1701l-17-358 282-18-20-412-72 2-8 25-189 6-16-191h-50l-4 53-118 6 14 311 105-1 6 197-263 11-11-16-166 10-8-31-27-636-60 7-76 83-106 5 3 160-90 6 4 72-6 7-45 3-3-80-15-1v84l-47 1-4-77-16-2v81l-43 3-8-7-1-75-15-1 1 84-44 2-11-10-2-61 7-29-8-148-30-7-15-317 8-14v-82l221-9 12 95 11 262 200-9 83-86-1-29-68 3-1 70-176 6-6-13-7-219 68-5 6-8 27-2 565-24-5-117 32-3-1-34-1-6h-75l-5-209 139-6 11 188 99-5 2-87 298-14 4 63 127-7 16 5 9 194 36-1 30 24 158-7 6 18 43-4-1-97 119-4 5 105 36-2v-18l11-7 55-2 8 15 42-2-14-225 25-50 48-1 10-8 78 1 8 2 6 28 303-13 13-1 21-34 119-6 25 11 14 266 60-2 4-13 55-1-3-85 21-19 103-4 6 6 8 167 23 7 9 169 26 12 11 244v19l-4 9-46 6-16 12-24-2-14 20-16 7h-65l-6-21-88 5-17-331-24 1-38 23-128 6-4-22-42 1-293 16-25 21-102 6h-35l-7-26h-29l-1 51-10 11-33 1 11 256-19 12-88 5-64 2-21-7-175 8 15 327 99-3 4 88 19 5 14 192 1 164-633 30zm-1642-1398l6-15 343-14 5 24-8-8 1 65 29 634-291 13-33 3 3 7-24-9-31-698zm1322-284l10 154-20 12 21 1-1 56-50-1-3-48 13-8-11-9-7-147 4-7zm-793 19l16 9 8 260-79 2-18-9-12-229 5-28zm-182 256h1v1h-1zm3 65h1v1h-1zm12 142h1v1h-1zm3 103h1v1h-1zm1 5h1v1h-1zm10 380h1v1h-1zm1130 386l25 1 10 9 6 235-20 11-2 12-136 4 1 33-27 2-5-30-212 8-29-35 9-11-8-134 27-5-3-79z"/></svg>