<svg xmlns="http://www.w3.org/2000/svg" viewBox="0 0 1800 3600" width="100%" height="100%">
  <defs>
    <pattern id="chainlink" width="20" height="20" patternUnits="userSpaceOnUse">
      <path d="M 0 10 L 10 0 L 20 10 L 10 20 Z" stroke="#A9A9A9" stroke-width="1.5" fill="none" />
    </pattern>

    <g id="tennis-court">
      <rect x="120" y="210" width="360" height="780" fill="#20662D" />
      
      <g stroke="#F5F5F5" stroke-width="6" fill="none">
        <rect x="120" y="210" width="360" height="780" />
        <rect x="165" y="210" width="270" height="780" />
        <line x1="165" y1="390" x2="435" y2="390" />
        <line x1="165" y1="810" x2="435" y2="810" />
        <line x1="300" y1="390" x2="300" y2="810" />
        <line x1="300" y1="210" x2="300" y2="222" />
        <line x1="300" y1="978" x2="300" y2="990" />
      </g>
      
      <line x1="105" y1="600" x2="495" y2="600" stroke="#222222" stroke-width="5" stroke-linecap="round" />
      <line x1="105" y1="600" x2="495" y2="600" stroke="#FFFFFF" stroke-width="2" stroke-dasharray="4 6" />
      <circle cx="105" cy="600" r="6" fill="#555555" />
      <circle cx="495" cy="600" r="6" fill="#555555" />
    </g>
  </defs>

  <rect x="0" y="0" width="1800" height="3600" fill="#29823B" />

  <use href="#tennis-court" x="0" y="0" />
  <use href="#tennis-court" x="600" y="0" />
  <use href="#tennis-court" x="1200" y="0" />
  
  <use href="#tennis-court" x="0" y="1200" />
  <use href="#tennis-court" x="600" y="1200" />
  <use href="#tennis-court" x="1200" y="1200" />
  
  <use href="#tennis-court" x="0" y="2400" />
  <use href="#tennis-court" x="600" y="2400" />
  <use href="#tennis-court" x="1200" y="2400" />

  <rect x="10" y="10" width="1780" height="3580" fill="none" stroke="url(#chainlink)" stroke-width="20" />
  <rect x="1" y="1" width="1798" height="3598" fill="none" stroke="#666666" stroke-width="2" />
  <rect x="20" y="20" width="1760" height="3560" fill="none" stroke="#666666" stroke-width="2" />
</svg>