<svg xmlns="http://www.w3.org/2000/svg" viewBox="0 0 400 250" width="100%" height="100%">
  <defs>
    <pattern id="pitch-grass" width="40" height="250" patternUnits="userSpaceOnUse">
      <rect width="20" height="250" fill="#4caf50" />
      <rect x="20" width="20" height="250" fill="#43a047" />
    </pattern>
  </defs>

  <rect width="400" height="250" fill="url(#pitch-grass)" />

  <rect x="5" y="5" width="390" height="240" fill="none" stroke="#7ec771" stroke-width="2" rx="15"/>
  
  <circle cx="200" cy="125" r="40" fill="none" stroke="#7ec771" stroke-width="2"/>
  <line x1="200" y1="5" x2="200" y2="245" stroke="#7ec771" stroke-width="2"/>
  
  <rect x="180" y="105" width="40" height="40" fill="#a49d79" opacity="0.4"/>
  <rect x="60" y="105" width="30" height="30" fill="#a49d79" opacity="0.4"/>
  <rect x="300" y="105" width="30" height="30" fill="#a49d79" opacity="0.4"/>
  
  <g fill="none" stroke="#e0f2f1" stroke-width="1.5" opacity="0.7">
    <path d="M50,40 L350,40 C380,40 380,210 350,210 L50,210 C20,210 20,40 50,40 Z" />
    <path d="M50,34 L350,34 C386,34 386,216 350,216 L50,216 C14,216 14,34 50,34 Z" />
    <path d="M50,28 L350,28 C392,28 392,222 350,222 L50,222 C8,222 8,28 50,28 Z" />
    <path d="M50,22 L350,22 C398,22 398,228 350,228 L50,228 C2,228 2,22 50,22 Z" />
  </g>
</svg>